<svg xmlns="http://www.w3.org/2000/svg">
	<symbol id="arrow" viewBox="0 0 100 100">
		<g>
			<path d="M99.12 47.88 72.25 21A3 3 0 1 0 68 25.25L89.76 47H3a3 3 0 0 0 0 6h86.76L68 74.75A3 3 0 1 0 72.25 79l26.87-26.88a3 3 0 0 0 0-4.24z"></path>
		</g>
  </symbol>
	<symbol id="tel" viewBox="0 0 31 31">
    <g>
    <path d="M18.8457 27.5804C17.925 27.3337 16.721 26.6542 15.0743 25.0533C13.0733 23.1017 11.5785 21.3945 9.86222 18.4308C8.2087 15.5689 7.50128 13.8133 6.71317 10.6025C5.82236 6.97691 6.56239 5.39986 7.08317 4.78064C7.70419 4.04016 8.4218 3.69004 9.30866 3.38931C9.81096 3.22385 10.3274 3.10503 10.8515 3.03435C10.9041 3.02671 10.9532 3.01912 10.997 3.01216C11.2586 2.96954 11.655 2.90538 12.0575 3.19523C12.3265 3.3876 12.5319 3.68882 12.8392 4.21348C13.4697 5.28829 14.1364 7.48441 14.3207 8.5246C14.4439 9.22536 14.5256 9.68807 14.4025 10.1495C14.2578 10.6895 13.8745 11.0332 13.4244 11.3943C13.34 11.4622 13.2571 11.5264 13.1767 11.5888C12.6914 11.9642 12.5761 12.0794 12.5628 12.3367C12.5369 12.854 12.9311 14.5201 13.8755 16.1517C14.8199 17.7832 16.0369 18.8969 16.4999 19.1332C16.7391 19.2554 16.9002 19.2106 17.4865 18.9694C17.5706 18.9348 17.6571 18.8988 17.7469 18.8637C18.3499 18.6244 18.8179 18.4663 19.3452 18.6075L19.348 18.6083C19.8069 18.7313 20.1465 19.0356 20.7094 19.5382C21.4436 20.194 23.0728 21.8695 23.6933 22.9553C23.9952 23.483 24.1545 23.8108 24.1873 24.1396C24.2366 24.6346 23.9823 24.9441 23.8149 25.1519C23.787 25.1864 23.7561 25.2242 23.7231 25.2664C23.3985 25.6836 23.0362 26.0702 22.6407 26.4211C21.9384 27.0367 21.2749 27.4811 20.3211 27.6487C19.8305 27.738 19.326 27.7146 18.8457 27.5804Z"/>
  </g>
  </symbol>
  <symbol id="mark" viewBox="0 0 17 10">
    <g>
      <path d="M0.551605 1.21436L8.3764 8.58718L16.2012 1.21436"/>
    </g>
  </symbol>
</svg>